<svg width="1360" height="740" xmlns="http://www.w3.org/2000/svg">

 <g>
  <title>background</title>
  <rect fill="none" id="canvas_background" height="742" width="1362" y="-1" x="-1"/>
 </g>
 <g>
  <title>Layer 1</title>
  <g id="svg_1" transform="matrix(0.9849010352020325,0,0,0.757909398602164,29.56926389303021,217.7603600633301) ">
   <g id="svg_2">
    <path id="svg_3" fill=" rgb(3, 169, 244)" class="st0" d="m-33.505914,-288.952798l1400,0l0,980l-1400,0l0,-980z"/>
   </g>
  </g>
  <g id="svg_7" transform="matrix(1,0,0,1,-3.552713678800501e-15,-3.637978807091713e-12) ">
   <g id="svg_8">
    <g id="svg_9">
     <g id="svg_10">
      <g id="svg_11">
       <g id="svg_12">
        <g id="svg_13">
         <g id="svg_14">
          <path id="svg_15" fill=" rgb(2, 112, 171)" class="st2" d="m64.999992,467.399974l197.5,0l0,28.9l-197.5,0l0,-28.9z"/>
         </g>
        </g>
       </g>
      </g>
      <g id="svg_16">
       <path id="svg_17" fill=" rgb(2, 112, 171)" class="st3" d="m61.099992,53.199964l233.3,0l0,30.6l-233.3,0l0,-30.6z"/>
      </g>
      <g id="svg_18">
       <g id="svg_19">
        <path id="svg_20" fill=" rgb(2, 112, 171)" class="st4" d="m75.399992,524.899974l77.80001,0l0,5.3l-77.80001,0l0,-5.3z"/>
       </g>
       <g id="svg_21">
        <path id="svg_22" fill=" rgb(2, 112, 171)" class="st4" d="m75.399992,549.699964l63.3,0l0,5.3l-63.3,0l0,-5.3z"/>
       </g>
       <g id="svg_23">
        <path id="svg_24" fill=" rgb(2, 112, 171)" class="st4" d="m75.399992,573.999954l77.80001,0l0,5.3l-77.80001,0l0,-5.3z"/>
       </g>
       <g id="svg_25">
        <path id="svg_26" fill=" rgb(2, 112, 171)" class="st4" d="m175.999992,524.899974l77.8,0l0,5.3l-77.8,0l0,-5.3z"/>
       </g>
       <g id="svg_27">
        <path id="svg_28" fill=" rgb(2, 112, 171)" class="st4" d="m153.199992,549.699964l86.1,0l0,5.3l-86.1,0l0,-5.3z"/>
       </g>
       <g id="svg_29">
        <path id="svg_30" fill=" rgb(2, 112, 171)" class="st4" d="m175.999992,573.999954l77.8,0l0,5.3l-77.8,0l0,-5.3z"/>
       </g>
      </g>
     </g>
    </g>
   </g>
  </g>
  <g id="svg_31" transform="matrix(1,0,0,1,-7.105427357601002e-15,-7.275957614183426e-12) ">
   <path id="svg_32" fill=" rgb(218, 74, 66)" d="m950.199992,624.899954l-34.3,0c-4,0 -7.2,-3.2 -7.2,-7.2c0,-4 3.2,-7.2 7.2,-7.2l34.3,0c4,0 7.2,3.2 7.2,7.2c0,4 -3.2,7.2 -7.2,7.2z" class="st5"/>
  </g>
  <path id="svg_33" fill=" rgb(255, 87, 34)" d="m856.899992,624.899954l-469.3,0c-4,0 -7.2,-3.2 -7.2,-7.2c0,-4 3.2,-7.2 7.2,-7.2l469.2,0c4,0 7.2,3.2 7.2,7.2c0.1,4 -3.1,7.2 -7.1,7.2z" class="st5"/>
  <path id="svg_34" fill=" rgb(255, 87, 34)" d="m339.199992,624.899954l-7.4,0c-4,0 -7.2,-3.2 -7.2,-7.2c0,-4 3.2,-7.2 7.2,-7.2l7.4,0c4,0 7.2,3.2 7.2,7.2c0,4 -3.2,7.2 -7.2,7.2z" class="st5"/>
  <g id="svg_35" transform="matrix(1,0,0,1,-7.105427357601002e-15,-7.275957614183426e-12) ">
   <path id="svg_36" fill=" rgb(2, 136, 209)" d="m756.399992,156.799954l0,427.5c0,4.1 -3.4,7.5 -7.5,7.5l-233.2,0c-2.6,0 -4.8,-2.1 -4.8,-4.8l0,-433c0,-2.6 2.1,-4.8 4.8,-4.8l233.1,0c4.2,0.1 7.6,3.5 7.6,7.6z" class="st3"/>
  </g>
  <path id="svg_37" fill=" rgb(1, 96, 147)" d="m657.999992,181.899954l-47.9,0c-4.1,0 -7.4,-3.3 -7.4,-7.4l0,0c0,-4.1 3.3,-7.4 7.4,-7.4l47.9,0c4.1,0 7.4,3.3 7.4,7.4l0,0c0,4.1 -3.3,7.4 -7.4,7.4z" class="st6"/>
  <path id="svg_38" fill=" rgb(1, 96, 147)" class="st6" d="m647.599982,561.499954a14.3,14.3 0 0 1 -14.3,14.3a14.3,14.3 0 0 1 -14.3,-14.3a14.3,14.3 0 0 1 14.3,-14.3a14.3,14.3 0 0 1 14.3,14.3z"/>
  <path id="svg_39" fill=" rgb(1, 96, 147)" class="st7" d="m526.499992,197.699964l215.2,0l0,334.4l-215.2,0l0,-334.4z"/>
  <g id="svg_40" transform="matrix(1,0,0,1,-7.105427357601002e-15,-7.275957614183426e-12) ">
   <path id="svg_41" fill=" rgb(179, 229, 252)" class="st8" d="m525.700002,197.699964l215.9,0l0,37.1l-215.9,0l0,-37.1z"/>
  </g>
  <path id="svg_42" fill=" rgb(255, 255, 255)" class="st4" d="m525.700002,234.899944l215.9,0l0,275.60001l-215.9,0l0,-275.60001z"/>
  <g id="svg_43" transform="matrix(1,0,0,1,-1.0658141036401503e-14,-1.0913936421275139e-11) ">
   <path id="svg_44" fill=" rgb(161, 163, 166)" d="m708.399992,267.699954l-148.7,0c-4.1,0 -7.5,-3.4 -7.5,-7.5c0,-4.1 3.4,-7.5 7.5,-7.5l148.8,0c4.1,0 7.5,3.4 7.5,7.5c0,4.2 -3.4,7.5 -7.6,7.5z" class="st9"/>
  </g>
  <path id="svg_45" fill=" rgb(161, 163, 166)" d="m708.399992,296.499954l-148.7,0c-4.1,0 -7.5,-3.4 -7.5,-7.5c0,-4.1 3.4,-7.5 7.5,-7.5l148.8,0c4.1,0 7.5,3.4 7.5,7.5c0,4.1 -3.4,7.5 -7.6,7.5z" class="st9"/>
  <path id="svg_46" fill=" rgb(161, 163, 166)" d="m642.699992,325.299954l-83,0c-4.1,0 -7.5,-3.4 -7.5,-7.5c0,-4.1 3.4,-7.5 7.5,-7.5l83,0c4.1,0 7.5,3.4 7.5,7.5c0,4.1 -3.4,7.5 -7.5,7.5z" class="st9"/>
  <g id="svg_47" transform="matrix(1,0,0,1,-7.105427357601002e-15,-7.275957614183426e-12) ">
   <g id="svg_48">
    <path id="svg_49" fill=" rgb(255, 224, 146)" d="m996.199992,541.699954c-0.7,-1.4 -1.5,-2.7 -2.2,-4c-0.3,-0.6 -0.5,-1.1 -0.8,-1.7l-43.7,-82.3c-8,-15 -26.5,-20.7 -41.5,-12.7c-10.4,5.5 -16.4,16.2 -16.3,27.3l-2.4,-4.5c-8,-15 -26.5,-20.7 -41.5,-12.7c-11.8,6.3 -17.8,19.2 -16,31.7c-9.3,-8.6 -23.4,-10.8 -35.2,-4.5c-8.9,4.7 -14.6,13.3 -16,22.6l-55.2,-104c-8,-15 -26.5,-20.7 -41.5,-12.7c-15,8 -20.7,26.5 -12.7,41.5l115.2,217l-33.5,-2.9c-16.9,-1.4 -31.8,11.1 -33.2,28c-1.4,16.9 11.1,31.8 28,33.2l124.1,10.6c25.4,5.2 52.5,1.9 77.1,-11.1c56.6,-30.2 77.8,-101.3 47.3,-158.8z" class="st10"/>
   </g>
   <g id="svg_50">
    <path id="svg_51" fill=" rgb(2, 136, 209)" d="m894.699992,715.499954c-7.8,0 -15.6,-0.8 -23.3,-2.3l-124,-10.6c-8.6,-0.7 -16.4,-4.8 -22,-11.4c-5.6,-6.6 -8.2,-15 -7.5,-23.6c1.5,-17.8 17.2,-31 35,-29.5l30.5,2.6l-113.8,-214.3c-4.1,-7.6 -4.9,-16.4 -2.4,-24.7c2.5,-8.3 8.1,-15.1 15.8,-19.1c7.6,-4.1 16.4,-4.9 24.7,-2.4c8.3,2.5 15.1,8.1 19.1,15.8l53.1,100c2.5,-8.2 8.2,-15.2 15.8,-19.3c10.9,-5.8 24.1,-4.8 34,2.2c-0.3,-12.1 6.3,-23.6 17.2,-29.4c7.6,-4.1 16.4,-4.9 24.7,-2.4c8.1,2.5 14.8,7.9 18.8,15.3c1.7,-9.7 7.8,-18.3 16.7,-23c7.6,-4.1 16.4,-4.9 24.7,-2.4c8.3,2.5 15.1,8.1 19.1,15.8l43.7,82.3c0.3,0.6 0.6,1.1 0.8,1.7c0.9,1.5 1.6,2.8 2.2,4l0,0c30.9,58.2 9.3,130.4 -48.1,160.9c-16.9,9.2 -35.8,13.8 -54.8,13.8zm-144.5,-74.2c-14.9,0 -27.6,11.5 -28.9,26.6c-0.7,7.7 1.7,15.3 6.7,21.2c5,5.9 12,9.6 19.7,10.2l124.2,10.6l0.1,0c25.8,5.3 52.8,1.4 76,-10.9c55.8,-29.7 76.8,-99.8 46.7,-156.4c-0.6,-1.2 -1.4,-2.5 -2.2,-4l-0.1,-0.1c-0.2,-0.5 -0.5,-1.1 -0.8,-1.6l-43.7,-82.4c-3.6,-6.9 -9.7,-11.9 -17.1,-14.1c-7.4,-2.3 -15.3,-1.5 -22.1,2.1c-9.6,5.1 -15.5,15 -15.4,25.8l0,6.7l-5.6,-10.5c-3.6,-6.9 -9.7,-11.9 -17.1,-14.1c-7.4,-2.3 -15.3,-1.5 -22.1,2.1c-10.8,5.8 -16.9,17.8 -15.1,29.9l0.7,4.7l-3.5,-3.2c-9,-8.3 -22.4,-10 -33.3,-4.3c-8.1,4.3 -13.7,12.3 -15.1,21.3l-0.8,5l-57.6,-108.4c-3.6,-6.9 -9.7,-11.9 -17.1,-14.1c-7.4,-2.3 -15.3,-1.5 -22.1,2.1c-6.9,3.6 -11.9,9.7 -14.1,17.1c-2.3,7.4 -1.5,15.3 2.1,22.1l116.7,219.7l-36.5,-3.1c-1,0 -1.8,0 -2.6,0z" class="st11"/>
   </g>
  </g>
  <path id="svg_52" fill=" rgb(2, 136, 209)" class="st11" d="m786.379125,640.923991l18.26706,1.084353l-0.195539,3.29406l-18.26706,-1.084353l0.195539,-3.29406z"/>
  <path id="svg_53" fill=" rgb(2, 136, 209)" class="st11" d="m780.762143,497.713532l33.72533,65.08307l-2.93007,1.51833l-33.72533,-65.08307l2.93007,-1.51833z"/>
  <path id="svg_54" fill=" rgb(2, 136, 209)" class="st11" d="m832.202912,480.529523l31.258692,58.24071l-2.90763,1.56057l-31.258692,-58.24071l2.90763,-1.56057z"/>
  <path id="svg_55" fill=" rgb(2, 136, 209)" class="st11" d="m893.121509,467.161961l23.275522,45.603839l-2.93931,1.50018l-23.275522,-45.603839l2.93931,-1.50018z"/>
  <g id="svg_56" transform="matrix(1,0,0,1,-7.105427357601002e-15,-7.275957614183426e-12) ">
   <g id="svg_57">
    <path id="svg_58" fill=" rgb(255, 255, 255)" class="st4" d="m904.599972,112.699964l246.89999,0l0,138.4l-246.89999,0l0,-138.4z"/>
   </g>
   <g id="svg_59">
    <g id="svg_60">
     <path id="svg_61" fill=" rgb(239, 239, 240)" d="m1107.599992,147.899954l-199.6,0c-0.7,0 -1.3,-0.6 -1.3,-1.3c0,-0.7 0.6,-1.3 1.3,-1.3l199.6,0c0.7,0 1.3,0.6 1.3,1.3c0,0.7 -0.6,1.3 -1.3,1.3z" class="st12"/>
    </g>
    <g id="svg_62">
     <path id="svg_63" fill=" rgb(239, 239, 240)" d="m1107.599992,183.199954l-199.6,0c-0.7,0 -1.3,-0.6 -1.3,-1.3c0,-0.7 0.6,-1.3 1.3,-1.3l199.6,0c0.7,0 1.3,0.6 1.3,1.3c0,0.7 -0.6,1.3 -1.3,1.3z" class="st12"/>
    </g>
    <g id="svg_64">
     <path id="svg_65" fill=" rgb(239, 239, 240)" d="m1107.599992,247.299954c-0.7,0 -1.3,-0.6 -1.3,-1.3l0,-125.9c0,-0.7 0.6,-1.3 1.3,-1.3s1.3,0.6 1.3,1.3l0,125.9c0,0.7 -0.6,1.3 -1.3,1.3z" class="st12"/>
    </g>
    <g id="svg_66">
     <path id="svg_67" fill=" rgb(239, 239, 240)" d="m1107.599992,218.399954l-199.6,0c-0.7,0 -1.3,-0.6 -1.3,-1.3c0,-0.7 0.6,-1.3 1.3,-1.3l199.6,0c0.7,0 1.3,0.6 1.3,1.3c0,0.8 -0.6,1.3 -1.3,1.3z" class="st12"/>
    </g>
   </g>
   <g id="svg_68">
    <path id="svg_69" fill=" rgb(196, 198, 200)" class="st13" d="m1118.400012,123.099964l23.4,0l0,18l-23.4,0l0,-18z"/>
   </g>
   <g id="svg_70">
    <path id="svg_71" fill=" rgb(239, 239, 240)" class="st12" d="m1118.400012,155.299944l23.4,0l0,18l-23.4,0l0,-18z"/>
   </g>
   <g id="svg_72">
    <path id="svg_73" fill=" rgb(196, 198, 200)" class="st13" d="m1118.400012,187.499954l23.4,0l0,18l-23.4,0l0,-18z"/>
   </g>
   <g id="svg_74">
    <path id="svg_75" fill=" rgb(239, 239, 240)" class="st12" d="m1118.400012,219.699964l23.4,0l0,18l-23.4,0l0,-18z"/>
   </g>
   <g id="svg_76">
    <path id="svg_77" fill=" rgb(196, 198, 200)" class="st13" d="m920.799982,127.299944l62.8,0l0,4.7l-62.8,0l0,-4.7z"/>
   </g>
   <g id="svg_78">
    <path id="svg_79" fill=" rgb(196, 198, 200)" class="st13" d="m920.799982,161.899944l112.9,0l0,4.7l-112.9,0l0,-4.7z"/>
   </g>
   <g id="svg_80">
    <path id="svg_81" fill=" rgb(196, 198, 200)" class="st13" d="m920.799982,196.499954l84.3,0l0,4.7l-84.3,0l0,-4.7z"/>
   </g>
  </g>
  <g id="svg_82" transform="matrix(1,0,0,1,-1.0658141036401503e-14,-1.0913936421275139e-11) ">
   <path id="svg_83" fill=" rgb(255, 87, 34)" class="st2" d="m798.200002,144.599964l179,0l0,34.59999l-179,0l0,-34.59999z"/>
  </g>
  <g id="svg_84" transform="matrix(1,0,0,1,-1.0658141036401503e-14,-1.4551915228366852e-11) ">
   <path id="svg_85" fill=" rgb(255, 255, 255)" class="st4" d="m810.999992,159.199964l17,0l0,5.4l-17,0l0,-5.4z"/>
  </g>
  <path id="svg_86" fill=" rgb(255, 255, 255)" class="st4" d="m832.499992,159.199964l54.2,0l0,5.4l-54.2,0l0,-5.4z"/>
  <path id="svg_87" fill=" rgb(255, 255, 255)" class="st4" d="m890.900012,159.199964l31.3,0l0,5.4l-31.3,0l0,-5.4z"/>
  <path id="svg_88" fill=" rgb(196, 66, 26)" class="st14" d="m976.599972,144.599964l34.5,0l0,34.59999l-34.5,0l0,-34.59999z"/>
  <g id="svg_89" transform="matrix(1,0,0,1,-1.0658141036401503e-14,-1.4551915228366852e-11) ">
   <path id="svg_90" fill=" rgb(255, 255, 255)" d="m981.299992,149.399954c-4,4 -4,10.6 0,14.6c4,4 10.6,4 14.6,0c4,-4 4,-10.6 0,-14.6c-4,-4 -10.5,-4 -14.6,0zm12.7,12.7c-3,3 -7.8,3 -10.8,0c-3,-3 -3,-7.8 0,-10.8c3,-3 7.8,-3 10.8,0c3,3 3,7.8 0,10.8z" class="st4"/>
  </g>
  <path id="svg_91" fill=" rgb(255, 255, 255)" class="st4" d="m993.832893,164.44583l2.47485,-2.47485l7.70739,7.70739l-2.47485,2.47485l-7.70739,-7.70739z"/>
  <path id="svg_92" fill=" rgb(255, 255, 255)" d="m1008.599992,176.699954l0,0c-1.1,1.1 -2.9,1.1 -4,0l-7.6,-7.6l4,-4l7.6,7.6c1.1,1.1 1.1,2.9 0,4z" class="st4"/>
  <g id="svg_93" transform="matrix(1,0,0,1,-7.105427357601002e-15,-7.275957614183426e-12) ">
   <path id="svg_94" fill=" rgb(255, 255, 255)" class="st4" d="m809.099972,291.599964l213.8,0l0,79.4l-213.8,0l0,-79.4z"/>
  </g>
  <path id="svg_95" fill=" rgb(255, 255, 255)" class="st4" d="m809.099972,291.599964l213.8,0l0,39.2l-213.8,0l0,-39.2z"/>
  <path id="svg_96" fill=" rgb(196, 66, 26)" class="st15" d="m809.099972,331.899974l48.8,0l0,39.2l-48.8,0l0,-39.2z"/>
  <path id="svg_97" fill=" rgb(255, 87, 34)" class="st2" d="m857.900012,331.899974l164.9,0l0,39.2l-164.9,0l0,-39.2z"/>
  <g id="svg_98" transform="matrix(1,0,0,1,-1.0658141036401503e-14,-1.0913936421275139e-11) ">
   <path id="svg_99" fill=" rgb(255, 255, 255)" class="st4" d="m822.599972,359.299944l3.70001,1.79999l15.90002,-19.19996l-3.70001,-1.90002l-15.90002,19.29999z"/>
  </g>
  <path id="svg_100" fill=" rgb(255, 255, 255)" d="m821.999992,359.999954l-1.5,3.8c-0.3,0.7 0.6,1.1 1.3,0.7l3.9,-2.6l-3.7,-1.9z" class="st4"/>
  <path id="svg_101" fill=" rgb(255, 255, 255)" d="m839.199992,339.099954l3.7,1.9l1.5,-1.8c0.7,-0.8 0.5,-1.8 -0.3,-2.2l-0.7,-0.4c-0.8,-0.4 -2,-0.1 -2.7,0.7l-1.5,1.8z" class="st4"/>
  <g id="svg_102" transform="matrix(1,0,0,1,-7.105427357601002e-15,-7.275957614183426e-12) ">
   <path id="svg_103" fill=" rgb(255, 87, 34)" d="m844.899992,304.099954l-16.9,0c-1.3,0 -2.3,-1 -2.3,-2.3l0,0c0,-1.3 1,-2.3 2.3,-2.3l16.9,0c1.3,0 2.3,1 2.3,2.3l0,0c0,1.2 -1,2.3 -2.3,2.3z" class="st2"/>
  </g>
  <path id="svg_104" fill=" rgb(255, 87, 34)" d="m844.899992,312.999954l-16.9,0c-1.3,0 -2.3,-1 -2.3,-2.3l0,0c0,-1.3 1,-2.3 2.3,-2.3l16.9,0c1.3,0 2.3,1 2.3,2.3l0,0c0,1.3 -1,2.3 -2.3,2.3z" class="st2"/>
  <path id="svg_105" fill=" rgb(255, 87, 34)" d="m844.899992,321.999954l-16.9,0c-1.3,0 -2.3,-1 -2.3,-2.3l0,0c0,-1.3 1,-2.3 2.3,-2.3l16.9,0c1.3,0 2.3,1 2.3,2.3l0,0c0,1.2 -1,2.3 -2.3,2.3z" class="st2"/>
  <g id="svg_106" transform="matrix(1,0,0,1,-7.105427357601002e-15,-7.275957614183426e-12) ">
   <g id="svg_107">
    <g id="svg_108">
     <path id="svg_109" fill=" rgb(255, 87, 34)" class="st2" d="m190.299992,117.999954l0,0l-53.1,0l0,97l0,49.79999l53.1,0l0,0l178.30001,0l0,-49.79999l0,-97l-178.30001,0z"/>
    </g>
    <g id="svg_110">
     <path id="svg_111" fill=" rgb(189, 189, 189)" class="st3" d="m137.199992,264.799944l53.09999,0l0,49.8l-53.09999,0l0,-49.8z"/>
    </g>
    <g id="svg_112">
     <path id="svg_113" fill=" rgb(255, 255, 255)" class="st4" d="m190.299992,264.799944l178.4,0l0,49.8l-178.4,0l0,-49.8z"/>
    </g>
    <g id="svg_114">
     <g id="svg_115">
      <path id="svg_116" fill=" rgb(255, 86, 34)" class="st2" d="m217.199992,285.999954l19,0l0,6l-19,0l0,-6z"/>
     </g>
     <g id="svg_117">
      <path id="svg_118" fill=" rgb(255, 86, 34)" class="st2" d="m241.299982,285.999954l60.7,0l0,6l-60.7,0l0,-6z"/>
     </g>
     <g id="svg_119">
      <path id="svg_120" fill=" rgb(255, 86, 34)" class="st2" d="m306.700002,285.999954l35,0l0,6l-35,0l0,-6z"/>
     </g>
    </g>
   </g>
   <g id="svg_121">
    <g id="svg_122">
     <path id="svg_123" fill=" rgb(255, 255, 255)" d="m147.799992,277.499954l31.7,0c1.3,0 1.9,1.7 0.8,2.5l-12.6,9.5c-2.5,1.8 -5.8,1.8 -8.3,0l-12.4,-9.5c-1,-0.8 -0.5,-2.5 0.8,-2.5z" class="st4"/>
    </g>
    <g id="svg_124">
     <path id="svg_125" fill=" rgb(255, 255, 255)" d="m167.699992,292.699954c-2.4,1.8 -5.7,1.8 -8,0l-16,-12l0,21.3l40,0l0,-21.3l-16,12z" class="st4"/>
    </g>
   </g>
  </g>
  <g id="svg_126" transform="matrix(1,0,0,1,-1.0658141036401503e-14,-1.0913936421275139e-11) ">
   <path id="svg_127" fill=" rgb(255, 255, 255)" d="m287.199992,214.399954c-1.2,0 -2.4,-0.1 -3.6,-0.4c-4.4,-0.9 -8.1,-3.5 -10.5,-7.3c-2.4,-3.8 -3.2,-8.2 -2.3,-12.6c0.9,-4.4 3.5,-8.1 7.3,-10.5c3.8,-2.4 8.2,-3.2 12.6,-2.3c4.4,0.9 8.1,3.5 10.5,7.3l0,0c5,7.8 2.8,18.2 -5,23.2c-2.7,1.7 -5.8,2.6 -9,2.6zm-0.1,-30.8c-2.6,0 -5.2,0.7 -7.6,2.2c-6.5,4.2 -8.3,12.8 -4.2,19.3c4.2,6.5 12.8,8.3 19.3,4.2c6.5,-4.2 8.3,-12.8 4.2,-19.3l0,0c-2.6,-4.1 -7.1,-6.4 -11.7,-6.4z" class="st4"/>
  </g>
  <path id="svg_128" fill=" rgb(255, 255, 255)" d="m300.899992,220.599954c-0.5,0 -0.9,-0.2 -1.2,-0.6l-3.6,-5.6c-0.4,-0.6 -0.2,-1.5 0.4,-1.9c0.6,-0.4 1.5,-0.2 1.9,0.4l3.6,5.6c0.4,0.6 0.2,1.5 -0.4,1.9c-0.2,0.1 -0.4,0.2 -0.7,0.2z" class="st4"/>
  <path id="svg_129" fill=" rgb(255, 255, 255)" d="m310.799992,208.799954c-0.2,0 -0.4,0 -0.5,-0.1l-6.2,-2.5c-0.7,-0.3 -1.1,-1.1 -0.8,-1.8c0.3,-0.7 1.1,-1.1 1.8,-0.8l6.2,2.5c0.7,0.3 1.1,1.1 0.8,1.8c-0.2,0.6 -0.8,0.9 -1.3,0.9z" class="st4"/>
  <path id="svg_130" fill=" rgb(255, 255, 255)" d="m305.599992,194.899954c-0.6,0 -1.2,-0.4 -1.4,-1.1c-0.2,-0.7 0.3,-1.5 1,-1.7l6.5,-1.5c0.7,-0.2 1.5,0.3 1.7,1c0.2,0.7 -0.3,1.5 -1,1.7l-6.5,1.5c0,0.1 -0.1,0.1 -0.3,0.1z" class="st4"/>
  <path id="svg_131" fill=" rgb(255, 255, 255)" d="m299.999992,184.999954c-0.3,0 -0.7,-0.1 -0.9,-0.4c-0.6,-0.5 -0.6,-1.4 -0.1,-2l4.5,-4.9c0.5,-0.6 1.4,-0.6 2,-0.1c0.6,0.5 0.6,1.4 0.1,2l-4.5,4.9c-0.4,0.4 -0.8,0.5 -1.1,0.5z" class="st4"/>
  <path id="svg_132" fill=" rgb(255, 255, 255)" d="m289.599992,180.199954c-0.1,0 -0.1,0 -0.2,0c-0.8,-0.1 -1.3,-0.8 -1.2,-1.6l0.8,-6.6c0.1,-0.8 0.8,-1.3 1.6,-1.2c0.8,0.1 1.3,0.8 1.2,1.6l-0.8,6.6c-0.1,0.7 -0.7,1.2 -1.4,1.2z" class="st4"/>
  <path id="svg_133" fill=" rgb(255, 255, 255)" d="m278.399992,182.199954c-0.5,0 -1,-0.3 -1.2,-0.7l-3.1,-5.9c-0.4,-0.7 -0.1,-1.5 0.6,-1.9c0.7,-0.4 1.5,-0.1 1.9,0.6l3.1,5.9c0.4,0.7 0.1,1.5 -0.6,1.9c-0.3,0 -0.5,0.1 -0.7,0.1z" class="st4"/>
  <path id="svg_134" fill=" rgb(255, 255, 255)" d="m270.299992,190.199954c-0.2,0 -0.4,0 -0.6,-0.2l-5.9,-3c-0.7,-0.4 -1,-1.2 -0.6,-1.9c0.4,-0.7 1.2,-1 1.9,-0.6l5.9,3c0.7,0.4 1,1.2 0.6,1.9c-0.3,0.6 -0.8,0.8 -1.3,0.8z" class="st4"/>
  <path id="svg_135" fill=" rgb(255, 255, 255)" d="m261.699992,202.399954c-0.7,0 -1.3,-0.5 -1.4,-1.2c-0.1,-0.8 0.4,-1.5 1.2,-1.6l6.6,-0.9c0.8,-0.1 1.5,0.4 1.6,1.2c0.1,0.8 -0.4,1.5 -1.2,1.6l-6.6,0.9c0,0 -0.1,0 -0.2,0z" class="st4"/>
  <path id="svg_136" fill=" rgb(255, 255, 255)" d="m268.299992,216.299954c-0.4,0 -0.7,-0.1 -1,-0.4c-0.5,-0.6 -0.5,-1.4 0.1,-2l4.9,-4.5c0.6,-0.5 1.4,-0.5 2,0.1c0.5,0.6 0.5,1.4 -0.1,2l-4.9,4.5c-0.4,0.2 -0.7,0.3 -1,0.3z" class="st4"/>
  <path id="svg_137" fill=" rgb(255, 255, 255)" d="m281.599992,223.999954c-0.1,0 -0.2,0 -0.3,0c-0.8,-0.2 -1.2,-0.9 -1.1,-1.7l1.4,-6.5c0.2,-0.8 0.9,-1.2 1.7,-1.1c0.8,0.2 1.2,0.9 1.1,1.7l-1.4,6.5c-0.2,0.7 -0.8,1.1 -1.4,1.1z" class="st4"/>
  <g id="svg_138" transform="matrix(1,0,0,1,-1.0658141036401503e-14,-1.0913936421275139e-11) ">
   <path id="svg_139" fill=" rgb(196, 66, 26)" d="m283.399992,215.899954c0.1,0 0.1,0 0.2,0c2.5,-6.5 8.8,-11.1 16.2,-11.1c1.3,0 2.6,0.1 3.8,0.4c4.1,-6.1 11.2,-9.9 19.2,-9.5c11,0.5 20.1,9.5 20.7,20.5c0,0.1 0,0.2 0,0.3c0.3,6.1 -4.6,11.1 -10.7,11.1l-48.3,0c-7.1,-0.2 -8.1,-10.5 -1.1,-11.7z" class="st16"/>
  </g>
  <path id="svg_140" fill=" rgb(255, 255, 255)" d="m332.799992,228.799954l-48.3,0c-4.6,0 -6.9,-3.4 -7.2,-6.6c-0.3,-3 1.3,-6.6 5.3,-7.6c2.9,-6.8 9.8,-11.3 17.2,-11.3c1,0 2.1,0.1 3.2,0.3c4.7,-6.3 12,-9.8 19.9,-9.4c11.6,0.6 21.3,10.1 22.1,21.8l0,0.3c0.2,3.3 -1,6.4 -3.3,8.8c-2.4,2.4 -5.6,3.7 -8.9,3.7zm-33,-22.7c-6.6,0 -12.5,4.1 -14.9,10.2l-0.3,0.8l-0.9,0.1c-2.9,0.5 -3.8,2.9 -3.6,4.7c0.2,2 1.6,4.1 4.4,4.1l48.3,0c2.6,0 5,-1 6.8,-2.9c1.7,-1.8 2.6,-4.2 2.5,-6.7l0,-0.3c-0.6,-10.2 -9.2,-18.7 -19.4,-19.2c-7.2,-0.4 -13.9,3 -18,8.9l-0.5,0.8l-0.9,-0.2c-1.2,-0.2 -2.4,-0.3 -3.5,-0.3z" class="st4"/>
  <path id="svg_141" fill=" rgb(255, 255, 255)" d="m179.499992,148.199954c0,-3.9 -1.4,-5 -3.6,-5c-2.2,0 -3.6,1.2 -3.6,4.3l0,2.8l-6.5,0l0,-2.4c0,-7 3.5,-11 10.3,-11c6.8,0 10.3,4 10.3,11l0,1.1c0,4.7 -1.5,7.6 -4.8,8.9l0,0.1c3.4,1.5 4.8,4.7 4.8,9.1l0,3.4c0,7 -3.5,11 -10.3,11c-6.8,0 -10.3,-4 -10.3,-11l0,-3.6l6.5,0l0,4.1c0,3.1 1.4,4.3 3.6,4.3c2.2,0 3.6,-1.1 3.6,-4.9l0,-3.4c0,-4.1 -1.4,-5.6 -4.5,-5.6l-2.3,0l0,-6.3l2.7,0c2.6,0 4.1,-1.1 4.1,-4.6l0,-2.3z" class="st4"/>
  <path id="svg_142" fill=" rgb(255, 255, 255)" d="m190.399992,147.899954c0,-7 3.7,-11 10.4,-11c6.8,0 10.4,4 10.4,11l0,22.8c0,7 -3.7,11 -10.4,11c-6.8,0 -10.4,-4 -10.4,-11l0,-22.8zm6.9,23.2c0,3.1 1.4,4.3 3.6,4.3c2.2,0 3.6,-1.2 3.6,-4.3l0,-23.6c0,-3.1 -1.4,-4.3 -3.6,-4.3c-2.2,0 -3.6,1.2 -3.6,4.3l0,23.6z" class="st4"/>
  <path id="svg_143" fill=" rgb(255, 255, 255)" d="m224.299992,147.599954c-0.4,0 -0.9,0 -1.3,-0.1c-1.6,-0.4 -3,-1.3 -3.9,-2.7c-1.9,-2.9 -1,-6.8 1.9,-8.7c1.4,-0.9 3.1,-1.2 4.7,-0.9c1.6,0.4 3,1.3 3.9,2.7l0,0c0.9,1.4 1.2,3.1 0.9,4.7c-0.4,1.6 -1.3,3 -2.7,3.9c-1.1,0.7 -2.3,1.1 -3.5,1.1zm0,-10.2c-0.7,0 -1.5,0.2 -2.1,0.6c-1.8,1.2 -2.3,3.6 -1.2,5.4c0.6,0.9 1.4,1.5 2.5,1.7c1,0.2 2.1,0 2.9,-0.5c0.9,-0.6 1.5,-1.4 1.7,-2.5c0.2,-1 0,-2.1 -0.5,-2.9l0,0c-0.7,-1.2 -2,-1.8 -3.3,-1.8z" class="st4"/>
  <g id="svg_144" transform="matrix(1,0,0,1,-7.105427357601002e-15,-7.275957614183426e-12) ">
   <g id="svg_145">
    <g id="svg_146">
     <g id="svg_147">
      <path id="svg_148" fill=" rgb(255, 87, 34)" class="st2" d="m1102.699942,382.599934l0,0l-41.3999,0l0,97l0,49.80004l41.3999,0l0,0l139,0l0,-49.80004l0,-97l-139,0z"/>
     </g>
     <g id="svg_149">
      <g id="svg_150">
       <path id="svg_151" fill=" rgb(255, 255, 255)" class="st4" d="m1079.999992,471.599934l143,0l0,26.2l-143,0l0,-26.2z"/>
      </g>
      <g id="svg_152">
       <path id="svg_153" fill=" rgb(255, 255, 255)" class="st4" d="m1079.999992,439.599934l143,0l0,26.2l-143,0l0,-26.2z"/>
      </g>
      <g id="svg_154">
       <path id="svg_155" fill=" rgb(196, 66, 26)" class="st15" d="m1190.300042,471.599934l32.7,0l0,26.2l-32.7,0l0,-26.2z"/>
      </g>
      <g id="svg_156">
       <path id="svg_157" fill=" rgb(196, 66, 26)" class="st15" d="m1190.300042,439.599934l32.7,0l0,26.2l-32.7,0l0,-26.2z"/>
      </g>
     </g>
     <g id="svg_158">
      <path id="svg_159" fill=" rgb(1, 96, 147)" class="st17" d="m1061.300042,529.399974l180.3,0l0,34.3l-180.3,0l0,-34.3z"/>
     </g>
     <g id="svg_160">
      <g id="svg_161">
       <path id="svg_162" fill=" rgb(255, 255, 255)" class="st4" d="m1089.099972,543.499954l27.89999,0l0,6l-27.89999,0l0,-6z"/>
      </g>
      <g id="svg_163">
       <path id="svg_164" fill=" rgb(255, 255, 255)" class="st4" d="m1124.499992,543.499954l89.4,0l0,6l-89.4,0l0,-6z"/>
      </g>
     </g>
    </g>
   </g>
  </g>
  <path id="svg_165" fill=" rgb(255, 255, 255)" d="m1089.199992,413.099954l0,0l2.9,-19l5.8,0l0,26.7l-4,0l0,-19.2l-0.1,0l-2.8,19.2l-4,0l-3.1,-18.9l-0.1,0l0,18.9l-3.7,0l0,-26.7l5.8,0l3.3,19z" class="st4"/>
  <path id="svg_166" fill=" rgb(255, 255, 255)" d="m1104.899992,411.999954l-5.3,-17.9l4.4,0l3.2,12.2l0.1,0l3.2,-12.2l4,0l-5.3,17.9l0,8.9l-4.2,0l0,-8.9l-0.1,0z" class="st4"/>
  <path id="svg_167" fill=" rgb(255, 255, 255)" d="m1135.599992,420.799954l-4.2,0l-0.7,-4.8l-5.2,0l-0.7,4.8l-3.9,0l4.3,-26.7l6.1,0l4.3,26.7zm-9.5,-8.5l4,0l-2,-13.5l-0.1,0l-1.9,13.5z" class="st4"/>
  <path id="svg_168" fill=" rgb(255, 255, 255)" d="m1149.699992,410.899954l0,3.5c0,4.3 -2.1,6.7 -6.3,6.7c-4.1,0 -6.3,-2.4 -6.3,-6.7l0,-13.9c0,-4.3 2.1,-6.7 6.3,-6.7c4.1,0 6.3,2.4 6.3,6.7l0,2.6l-4,0l0,-2.9c0,-1.9 -0.8,-2.6 -2.2,-2.6c-1.3,0 -2.2,0.7 -2.2,2.6l0,14.4c0,1.9 0.8,2.6 2.2,2.6c1.3,0 2.2,-0.7 2.2,-2.6l0,-3.8l4,0l0,0.1z" class="st4"/>
  <path id="svg_169" fill=" rgb(255, 255, 255)" d="m1164.399992,410.899954l0,3.5c0,4.3 -2.1,6.7 -6.3,6.7c-4.1,0 -6.3,-2.4 -6.3,-6.7l0,-13.9c0,-4.3 2.1,-6.7 6.3,-6.7c4.1,0 6.3,2.4 6.3,6.7l0,2.6l-4,0l0,-2.9c0,-1.9 -0.8,-2.6 -2.2,-2.6c-1.3,0 -2.2,0.7 -2.2,2.6l0,14.4c0,1.9 0.8,2.6 2.2,2.6c1.3,0 2.2,-0.7 2.2,-2.6l0,-3.8l4,0l0,0.1z" class="st4"/>
  <path id="svg_170" fill=" rgb(255, 255, 255)" d="m1166.699992,400.499954c0,-4.3 2.3,-6.7 6.4,-6.7c4.1,0 6.4,2.4 6.4,6.7l0,13.9c0,4.3 -2.3,6.7 -6.4,6.7c-4.1,0 -6.4,-2.4 -6.4,-6.7l0,-13.9zm4.2,14.2c0,1.9 0.8,2.6 2.2,2.6s2.2,-0.7 2.2,-2.6l0,-14.4c0,-1.9 -0.8,-2.6 -2.2,-2.6s-2.2,0.7 -2.2,2.6l0,14.4z" class="st4"/>
  <path id="svg_171" fill=" rgb(255, 255, 255)" d="m1186.099992,394.099954l0,20.6c0,1.9 0.8,2.6 2.2,2.6s2.2,-0.7 2.2,-2.6l0,-20.6l4,0l0,20.3c0,4.3 -2.1,6.7 -6.3,6.7c-4.1,0 -6.3,-2.4 -6.3,-6.7l0,-20.3l4.2,0z" class="st4"/>
  <path id="svg_172" fill=" rgb(255, 255, 255)" d="m1201.099992,401.499954l0,0l-0.1,19.3l-3.8,0l0,-26.7l5.3,0l4.2,16l0.1,0l0,-16l3.7,0l0,26.7l-4.3,0l-5.1,-19.3z" class="st4"/>
  <path id="svg_173" fill=" rgb(255, 255, 255)" d="m1212.399992,394.099954l13,0l0,3.8l-4.4,0l0,22.9l-4.2,0l0,-22.9l-4.4,0l0,-3.8z" class="st4"/>
  <g id="svg_174" transform="matrix(1,0,0,1,-7.105427357601002e-15,-7.275957614183426e-12) ">
   <g id="svg_175">
    <path id="svg_176" fill=" rgb(255, 87, 34)" class="st2" d="m494.400012,384.199964l72.1,0l0,66.3l-72.1,0l0,-66.3z"/>
   </g>
   <g id="svg_177">
    <g id="svg_178">
     <g id="svg_179">
      <path id="svg_180" fill=" rgb(255, 255, 255)" class="st4" d="m519.599972,434.899974l0,-35.10003l27.90002,17.60003l-27.90002,17.5z"/>
     </g>
    </g>
    <g id="svg_181">
     <path id="svg_182" fill=" rgb(255, 255, 255)" d="m530.499992,444.299954c-14.8,0 -26.9,-12.1 -26.9,-26.9c0,-14.8 12.1,-26.9 26.9,-26.9c14.8,0 26.9,12.1 26.9,26.9c0,14.8 -12.1,26.9 -26.9,26.9zm0,-51.7c-13.7,0 -24.8,11.1 -24.8,24.8c0,13.7 11.1,24.8 24.8,24.8c13.7,0 24.8,-11.1 24.8,-24.8c-0.1,-13.7 -11.2,-24.8 -24.8,-24.8z" class="st4"/>
    </g>
   </g>
  </g>
  <g id="svg_183" transform="matrix(1,0,0,1,-1.0658141036401503e-14,-1.0913936421275139e-11) ">
   <path id="svg_184" fill=" rgb(189, 189, 189)" class="st17" d="m279.499992,384.599934l214.5,0l0,65.69999l-214.5,0l0,-65.69999z"/>
  </g>
  <g id="svg_185" transform="matrix(1,0,0,1,-1.0658141036401503e-14,-1.4551915228366852e-11) ">
   <path id="svg_186" fill=" rgb(255, 255, 255)" class="st4" d="m306.399982,412.299944l21,0l0,10.2l-21,0l0,-10.2z"/>
  </g>
  <path id="svg_187" fill=" rgb(255, 255, 255)" class="st4" d="m348.200002,412.299944l62,0l0,10.2l-62,0l0,-10.2z"/>
  <path id="svg_188" fill=" rgb(255, 255, 255)" class="st4" d="m430.100002,412.299944l36.8,0l0,10.2l-36.8,0l0,-10.2z"/>
  <g id="svg_189" transform="matrix(1,0,0,1,-7.105427357601002e-15,-7.275957614183426e-12) ">
   <path id="svg_190" fill=" rgb(255, 87, 34)" d="m422.699992,272.199954l-0.7,-1.9c1.9,-0.7 3.5,-1.8 4.7,-3.4c1.3,-1.7 2,-3.9 2.2,-6.6l2,0.1c-0.2,3.1 -1.1,5.6 -2.6,7.6c-1.4,2 -3.3,3.4 -5.6,4.2zm-14.4,-0.5c-0.8,-0.3 -1.7,-0.6 -2.5,-0.9c-4.4,-1.8 -7.6,-3.8 -10.1,-6.2l1.4,-1.4c2.2,2.2 5.3,4.1 9.4,5.8c0.8,0.3 1.5,0.6 2.3,0.8l-0.5,1.9zm-15.6,-20.6l-2,-0.1c0.1,-3.1 0.9,-6.2 2.4,-9c0.8,-1.5 1.7,-3 2.8,-4.4l1.6,1.2c-1,1.3 -1.9,2.7 -2.6,4.1c-1.4,2.6 -2.1,5.4 -2.2,8.2zm34.1,-4.1c-1.5,-4.3 -3.6,-8.4 -6.4,-12.1l1.6,-1.2c2.9,3.9 5.1,8.1 6.7,12.6l-1.9,0.7zm68.4,-1.7l-2,-0.1l0,-0.2c0,-3.6 -2.3,-7.1 -6.7,-10.4l1.2,-1.6c5,3.7 7.5,7.7 7.5,12l0,0.3zm-87.5,-15.4l-1,-1.7l0.4,-0.3c3.9,-2.3 8.1,-4.3 12.5,-5.7l0.6,1.9c-4.3,1.4 -8.4,3.2 -12.1,5.5l-0.4,0.3zm66.6,-1.8c-4.3,-1.8 -8.7,-3.3 -13.1,-4.5l0.5,-1.9c4.6,1.2 9.1,2.7 13.4,4.6l-0.8,1.8zm-63.7,-2.7c-3.7,-2.6 -7.9,-4.5 -12.4,-5.8l0.6,-1.9c4.7,1.4 9,3.4 12.9,6.1l-1.1,1.6zm23.1,-4.1l-0.2,-2c2.5,-0.2 5,-0.4 7.5,-0.4c0,0 0,0 0,0c2.2,0 4.4,0.1 6.7,0.3l-0.2,2c-2.2,-0.2 -4.4,-0.3 -6.5,-0.3c0,0 0,0 0,0c-2.4,0.1 -4.9,0.2 -7.3,0.4zm-56.9,-2.5l-0.4,-2c2.7,-0.6 5.4,-0.9 8.2,-1l0.1,2c-2.7,0.1 -5.4,0.5 -7.9,1z" class="st16"/>
  </g>
  <path id="svg_191" fill=" rgb(255, 87, 34)" d="m407.699992,556.099954c-3,0 -6.1,-0.2 -9,-0.6l0.3,-2c4.5,0.6 9.2,0.8 13.8,0.4l0.2,2c-1.9,0.1 -3.6,0.2 -5.3,0.2zm19.2,-2.7l-0.6,-1.9c4.5,-1.3 8.8,-3 12.8,-5.2l0.9,1.8c-4.1,2.1 -8.5,3.9 -13.1,5.3zm-42,-1.6c-4.5,-1.8 -8.7,-4.2 -12.4,-7.1l1.2,-1.6c3.5,2.8 7.5,5.1 11.9,6.8l-0.7,1.9zm67,-11.6l-1.2,-1.6c3.5,-2.8 6.9,-6 10.1,-9.5l1.5,1.3c-3.3,3.6 -6.8,6.9 -10.4,9.8zm-169.8,-0.6l-1.6,-1.2c2.9,-3.9 6,-7.5 9.5,-10.6l1.4,1.5c-3.5,3.1 -6.6,6.5 -9.3,10.3zm80.5,-5.2c-0.4,-0.5 -0.8,-1.1 -1.2,-1.6c-1.9,-2.5 -3.9,-5.2 -6.1,-7.4c-0.5,-0.5 -1.1,-1 -1.6,-1.5l1.3,-1.5c0.6,0.5 1.2,1.1 1.7,1.6c2.3,2.4 4.3,5 6.3,7.6c0.4,0.5 0.8,1.1 1.2,1.6l-1.6,1.2zm-60.3,-13.3l-1,-1.7c4.2,-2.5 8.7,-4.3 13.2,-5.5l0.5,1.9c-4.3,1.1 -8.6,2.9 -12.7,5.3zm168.7,-1.8l-1.6,-1.1c2.5,-3.7 5,-7.7 7.2,-11.9l1.8,0.9c-2.4,4.3 -4.8,8.3 -7.4,12.1zm-129,-2.4c-4.2,-1.6 -8.7,-2.5 -13.4,-2.7l0.1,-2c4.9,0.2 9.6,1.1 14,2.8l-0.7,1.9zm142.3,-22.5l-1.9,-0.8c1.7,-4.2 3.3,-8.6 4.7,-13.1l1.9,0.6c-1.4,4.5 -3,9 -4.7,13.3z" class="st16"/>
  <path id="svg_192" fill=" rgb(255, 87, 34)" d="m387.299992,689.299954l-0.1,-1l0,-1c4.6,0 9.3,-0.1 14,-0.2l0.1,2c-4.8,0.1 -9.5,0.2 -14,0.2zm-14.2,-0.2c-4.8,-0.1 -9.5,-0.4 -14.1,-0.6l0.1,-2c4.6,0.3 9.3,0.5 14,0.6l0,2zm42.2,-0.5l-0.1,-2c4.5,-0.2 9.2,-0.5 14,-0.8l0.1,2c-4.7,0.3 -9.5,0.6 -14,0.8zm-70.3,-1.3c-4.7,-0.5 -9.4,-1 -14,-1.7l0.3,-2c4.5,0.6 9.2,1.2 13.9,1.6l-0.2,2.1zm98.4,-0.5l-0.2,-2c4.7,-0.4 9.4,-0.8 14,-1.3l0.2,2c-4.5,0.4 -9.3,0.9 -14,1.3zm28,-3l-0.3,-2c4.7,-0.6 9.4,-1.3 13.9,-2l0.3,2c-4.5,0.7 -9.2,1.4 -13.9,2zm-154.3,-0.3c-4.7,-0.9 -9.3,-1.8 -13.8,-2.9l0.5,-1.9c4.5,1 9.1,2 13.7,2.8l-0.4,2zm182.1,-4.1l-0.4,-2c4.7,-0.9 9.3,-1.8 13.7,-2.8l0.4,2c-4.4,0.9 -9.1,1.9 -13.7,2.8zm-209.5,-2.4c-4.5,-1.3 -9,-2.8 -13.4,-4.3l0.7,-1.9c4.3,1.5 8.8,2.9 13.3,4.2l-0.6,2zm236.9,-3.8l-0.5,-1.9c4.6,-1.2 9.1,-2.5 13.4,-3.9l0.6,1.9c-4.3,1.3 -8.9,2.7 -13.5,3.9zm-263.5,-5.5c-4.4,-1.8 -8.7,-3.8 -12.9,-5.8l0.9,-1.8c4.1,2 8.4,3.9 12.8,5.7l-0.8,1.9zm290.4,-2.9l-0.7,-1.9c4.4,-1.6 8.8,-3.3 13,-5.1l0.8,1.8c-4.2,1.8 -8.6,3.5 -13.1,5.2zm-315.7,-9.4c-4.1,-2.3 -8.2,-4.8 -12,-7.4l1.1,-1.7c3.8,2.5 7.8,5 11.9,7.3l-1,1.8zm341.6,-1.7l-0.9,-1.8c4.2,-2.1 8.4,-4.3 12.4,-6.5l1,1.7c-4,2.3 -8.2,4.6 -12.5,6.6zm-365.1,-13.9c-3.8,-2.9 -7.4,-5.9 -10.9,-9l1.3,-1.5c3.4,3.1 7,6.1 10.7,8.9l-1.1,1.6zm389.6,0l-1.1,-1.7c3.9,-2.6 7.7,-5.3 11.4,-8.1l1.2,1.6c-3.7,2.9 -7.5,5.6 -11.5,8.2zm-410.6,-18.8c-2,-2.1 -3.9,-4.3 -5.8,-6.4l1.5,-1.3c1.8,2.2 3.8,4.3 5.7,6.4l-1.4,1.3z" class="st16"/>
  <path id="svg_193" fill=" rgb(255, 87, 34)" d="m821.299992,422.399954l-0.1,-2c4.8,-0.2 9.4,-0.7 13.8,-1.5l0.3,2c-4.4,0.7 -9.1,1.2 -14,1.5zm-14.1,-0.2c-4.5,-0.3 -9.3,-0.8 -14,-1.5l0.3,-2c4.7,0.7 9.4,1.2 13.9,1.5l-0.2,2zm-27.9,-4.5c-5.3,-1.8 -9.2,-4.4 -12.1,-7.8l1.5,-1.3c2.6,3.1 6.3,5.5 11.2,7.2l-0.6,1.9zm69.8,-0.3l-0.6,-1.9c4.4,-1.5 8.7,-3.3 12.7,-5.5l0.9,1.8c-4,2.1 -8.4,4 -13,5.6zm25,-13.5l-1.2,-1.6c3.7,-2.9 7,-6.2 9.9,-9.7l1.5,1.3c-3,3.7 -6.5,7 -10.2,10z" class="st16"/>
  <path id="svg_194" fill=" rgb(255, 87, 34)" d="m771.699992,238.699954l-1.5,-1.3c2.9,-3.4 5.2,-7.4 6.9,-11.8l1.9,0.7c-1.9,4.6 -4.3,8.8 -7.3,12.4zm10.5,-26.3l-2,-0.2c0.4,-3.1 0.6,-6.5 0.6,-10c0,-1.3 0,-2.6 -0.1,-3.9l2,-0.1c0,1.3 0.1,2.7 0.1,3.9c0,3.7 -0.2,7.1 -0.6,10.3zm-2.7,-27.9c-0.1,-0.7 -0.2,-1.4 -0.3,-2.2c-0.4,-2.5 -0.8,-4.9 -1.2,-7.4c-0.2,-1.4 -0.5,-2.8 -0.7,-4.3l2,-0.3c0.2,1.4 0.4,2.8 0.7,4.3c0.4,2.5 0.8,5 1.2,7.5c0.1,0.7 0.2,1.4 0.3,2.2l-2,0.2zm-4,-27.9c-0.4,-4.1 -0.6,-7.8 -0.6,-11.2c0,-1 0,-2 0,-2.9l2,0.1c0,1 0,1.9 0,2.9c0,3.4 0.2,7 0.6,11l-2,0.1zm3.3,-27.7l-1.9,-0.5c0.4,-1.5 0.8,-2.9 1.3,-4.3c1,-3 2.4,-6 4,-8.9l1.8,1c-1.6,2.8 -2.9,5.7 -3.9,8.6c-0.5,1.3 -0.9,2.7 -1.3,4.1zm13.1,-24.1l-1.5,-1.3c2.9,-3.4 6.2,-6.7 10,-10.1l1.3,1.5c-3.8,3.4 -7,6.6 -9.8,9.9zm20.6,-18.6l-1.2,-1.6c3.7,-2.8 7.6,-5.5 11.5,-8.1l1.1,1.7c-3.8,2.5 -7.7,5.2 -11.4,8zm206.8,-8.8c-0.9,-4.3 -2.5,-8.6 -4.9,-12.8l1.7,-1c2.5,4.3 4.2,8.8 5.1,13.4l-1.9,0.4zm-183.5,-6.7l-1,-1.7c4,-2.4 8.2,-4.7 12.3,-6.8l0.9,1.8c-4.1,2.1 -8.2,4.3 -12.2,6.7zm24.8,-12.9l-0.8,-1.8c4.3,-1.9 8.6,-3.8 13,-5.5l0.7,1.9c-4.3,1.7 -8.6,3.5 -12.9,5.4zm145.4,-4c-3.3,-3.3 -6.9,-6.1 -10.8,-8.5l1,-1.7c4.1,2.5 7.9,5.4 11.2,8.8l-1.4,1.4zm-119.3,-6.1l-0.6,-1.9c4.5,-1.5 9,-2.8 13.5,-4l0.5,1.9c-4.5,1.2 -9,2.5 -13.4,4zm27,-7.3l-0.4,-2c4.6,-1 9.2,-1.8 13.9,-2.5l0.3,2c-4.6,0.7 -9.3,1.5 -13.8,2.5zm68.9,-0.8c-4.2,-1.4 -8.8,-2.4 -13.5,-3.1l0.3,-2c4.9,0.7 9.5,1.8 13.8,3.2l-0.6,1.9zm-41.3,-3.5l-0.2,-2c4.6,-0.4 9,-0.6 13.1,-0.6l1.1,0l0,2l-1,0c-4.1,0 -8.5,0.3 -13,0.6z" class="st16"/>
  <path id="svg_195" fill=" rgb(255, 87, 34)" d="m1263.899992,471.999954l-0.5,-1.9c0.5,-0.1 1,-0.3 1.6,-0.4l0.6,1.9c-0.6,0.1 -1.2,0.3 -1.7,0.4zm14.7,-6.1l-1,-1.7c3.8,-2.3 7.5,-5.1 11,-8.4l1.4,1.4c-3.7,3.5 -7.5,6.4 -11.4,8.7zm20.6,-19.3l-1.6,-1.2c2.6,-3.6 5.1,-7.6 7.2,-11.9l1.8,0.9c-2.2,4.4 -4.7,8.4 -7.4,12.2zm13.1,-25.1l-1.9,-0.7c1.6,-4.3 2.9,-8.8 4,-13.3l1.9,0.5c-1,4.5 -2.4,9.1 -4,13.5zm6.7,-27.5l-2,-0.3c0.7,-4.6 1.1,-9.2 1.4,-13.9l2,0.1c-0.3,4.8 -0.7,9.5 -1.4,14.1zm-0.3,-28.1c-0.1,-4.6 -0.4,-9.3 -0.9,-13.9l2,-0.2c0.5,4.7 0.8,9.4 0.9,14.1l-2,0zm-2.9,-27.7c-0.8,-4.6 -1.9,-9.2 -3.1,-13.6l1.9,-0.5c1.2,4.5 2.3,9.1 3.1,13.8l-1.9,0.3zm-7.2,-27c-1.6,-4.4 -3.3,-8.7 -5.2,-12.9l1.8,-0.8c1.9,4.2 3.7,8.7 5.3,13.1l-1.9,0.6zm-11.5,-25.4c-2.2,-4 -4.7,-8 -7.3,-11.9l1.7,-1.1c2.6,3.9 5.1,8 7.4,12l-1.8,1zm-15.5,-23.1c-2.9,-3.6 -6,-7.2 -9.1,-10.6l1.5,-1.4c3.2,3.4 6.3,7 9.2,10.7l-1.6,1.3zm-19.1,-20.4c-3.4,-3.1 -7,-6.1 -10.7,-9l1.2,-1.6c3.7,2.9 7.3,5.9 10.8,9.1l-1.3,1.5zm-22.1,-17c-3.9,-2.5 -7.9,-4.9 -12,-7.1l0.9,-1.8c4.1,2.2 8.2,4.6 12.1,7.2l-1,1.7zm-24.6,-13.3c-0.4,-0.2 -0.7,-0.3 -1.1,-0.5c-4,-1.7 -8.1,-3.3 -11.9,-4.7l0.7,-1.9c3.8,1.4 7.9,3 12,4.7c0.4,0.2 0.8,0.3 1.1,0.5l-0.8,1.9zm-26.1,-10.2c-5.1,-2 -9.2,-3.9 -12.9,-5.8l0.9,-1.8c3.7,1.9 7.7,3.7 12.7,5.7l-0.7,1.9z" class="st16"/>
  <path id="svg_196" fill=" rgb(9, 94, 107)" d="m622.648792,423.134234l2.34565,-248.63581"/>
 </g>
</svg>